<svg width="658" height="482" viewBox="0 0 658 482" fill="none" xmlns="http://www.w3.org/2000/svg">
<path d="M508.08 92.214C487.107 69.829 470.872 43.107 445.805 24.839C406.431 -3.91496 349.764 -6.71896 303.725 11.345C257.685 29.408 221.82 65.819 198.181 107.048C185.746 128.74 175.979 152.402 157.758 170.128C142.355 185.104 122.11 194.659 102.915 205.066C71.9666 221.799 42.1626 242.018 22.1346 269.761C2.1086 297.504 -6.8454 333.941 5.9566 365.207C14.5896 386.304 31.9786 403.09 49.7926 418.288C70.7566 436.157 93.2886 452.889 119.293 463.536C151.848 476.782 187.987 479.63 223.427 480.978C286.255 483.358 349.184 481.579 411.746 475.655C462.976 470.811 515.757 462.542 558.62 435.775C618.663 398.291 649.62 329.612 656.59 262.265C659.426 235.329 658.708 207.337 647.626 182.345C621.122 122.565 549.609 136.547 508.079 92.214H508.08Z" fill="#EFF1F7"/>
<path d="M266.317 205.334C266.317 205.334 249.717 202.387 245.067 214.003C240.417 225.619 245.067 265.736 245.067 265.736L307 310L266.317 205.334Z" fill="#3F3D56"/>
<path d="M344.202 382.727L319.647 389.735C316.079 390.745 312.337 388.783 311.275 385.349C310.228 381.911 312.262 378.303 315.825 377.28L340.347 370.266C343.912 369.256 347.654 371.213 348.719 374.645C349.777 378.078 347.759 381.69 344.202 382.727V382.727Z" fill="#2BD0D0"/>
<path d="M343 409C349.075 409 354 404.075 354 398C354 391.925 349.075 387 343 387C336.925 387 332 391.925 332 398C332 404.075 336.925 409 343 409Z" fill="#25233A"/>
<path d="M341.5 406C344.538 406 347 403.538 347 400.5C347 397.463 344.538 395 341.5 395C338.463 395 336 397.463 336 400.5C336 403.538 338.463 406 341.5 406Z" fill="#3F3D56"/>
<path d="M298 398C304.075 398 309 393.075 309 387C309 380.925 304.075 376 298 376C291.925 376 287 380.925 287 387C287 393.075 291.925 398 298 398Z" fill="#25233A"/>
<path d="M302 387.5C302 388.959 301.421 390.358 300.389 391.389C299.358 392.421 297.959 393 296.5 393C295.042 393 293.643 392.421 292.611 391.389C291.58 390.358 291 388.959 291 387.5C291 386.041 291.58 384.643 292.611 383.611C293.643 382.58 295.042 382 296.5 382C297.959 382 299.358 382.58 300.389 383.611C301.421 384.643 302 386.041 302 387.5V387.5Z" fill="url(#paint0_linear)"/>
<path d="M295 413C301.075 413 306 408.075 306 402C306 395.925 301.075 391 295 391C288.925 391 284 395.925 284 402C284 408.075 288.925 413 295 413Z" fill="#25233A"/>
<path d="M304 402.5C304 403.959 303.421 405.358 302.389 406.389C301.358 407.421 299.959 408 298.5 408C297.042 408 295.643 407.421 294.611 406.389C293.58 405.358 293 403.959 293 402.5C293 401.041 293.58 399.643 294.611 398.611C295.643 397.58 297.042 397 298.5 397C299.959 397 301.358 397.58 302.389 398.611C303.421 399.643 304 401.041 304 402.5Z" fill="#3F3D56"/>
<path d="M345.085 393.874L294.298 383.828C290.724 383.111 288.414 379.698 289.13 376.192C289.862 372.692 293.34 370.428 296.915 371.126L347.702 381.153C351.276 381.87 353.586 385.283 352.87 388.79C352.147 392.297 348.666 394.571 345.085 393.874V393.874Z" fill="#2BD0D0"/>
<path d="M314 313H328V372C328 375.866 324.867 379 321.003 379C319.147 378.999 317.368 378.262 316.056 376.949C314.744 375.636 314.007 373.856 314.007 372V313H314Z" fill="#2BD0D0"/>
<path d="M319.187 389.708L294.65 396.733C291.082 397.747 287.336 395.784 286.275 392.345C285.228 388.905 287.262 385.295 290.823 384.271L315.36 377.266C318.924 376.256 322.664 378.214 323.728 381.647C324.767 385.082 322.738 388.681 319.187 389.707V389.708Z" fill="#2BD0D0"/>
<path d="M324 389.26L320.875 389.811C319.926 389.976 318.962 390.033 318 389.983L319.305 389.755C320.17 389.611 321.012 389.357 321.812 389L324 389.26Z" fill="url(#paint1_linear)"/>
<path d="M349 375.738C349.003 377.282 348.489 378.782 347.54 380L327 375.65C327.52 374.907 327.893 374.071 328.098 373.188L340.752 369.265C341.567 369.019 342.424 368.944 343.269 369.044C344.114 369.143 344.93 369.416 345.665 369.844C347.165 370.711 348.274 372.168 348.748 373.892C348.912 374.492 348.997 375.114 349 375.738V375.738Z" fill="url(#paint2_linear)"/>
<path opacity="0.31" d="M313.22 374.103C313.074 373.589 313 373.058 313 372.523V314H318.943V377.07C318.884 377.38 318.903 377.697 319 378C318.085 377.682 317.125 377.51 316.155 377.489C315.465 377.449 314.77 377.449 314.079 377.489L314.504 377.389C314.766 377.349 313.564 375.298 313.221 374.103H313.22Z" fill="url(#paint3_linear)"/>
<path opacity="0.31" d="M350.289 392.8C349.319 393.323 348.228 393.597 347.119 393.596C346.673 393.595 346.228 393.551 345.789 393.466L323.382 389.06L321.515 388.697C320.875 389.176 320.152 389.534 319.382 389.752L318.272 390.069L295.247 396.735C291.733 397.742 288.045 395.792 287 392.373C288.997 394.178 292.029 394.346 294.223 392.774C297.034 390.878 308.225 388.031 314.564 386.517C317.56 385.819 319.852 383.467 320.412 380.517C320.428 380.344 320.454 380.171 320.492 380C321.548 381.113 323.489 382.362 326.997 383.423C335.637 386.012 349.664 387.727 349.664 387.727C349.664 387.727 352.196 390.147 350.289 392.8V392.8Z" fill="url(#paint4_linear)"/>
<path d="M352 391C351.464 391.786 350.786 392.464 350 393C350.675 392.341 351.341 391.675 352 391V391Z" fill="url(#paint5_linear)"/>
<path d="M314.3 373.559C314.58 374.735 315.166 375.815 316 376.689C315.79 376.728 315.575 376.781 315.359 376.84L294.088 383C290.817 382.187 288.662 379.135 289.044 375.854C289.425 372.574 292.225 370.073 295.6 370C296.054 370.001 296.506 370.045 296.95 370.132L314.3 373.559V373.559Z" fill="url(#paint6_linear)"/>
<path d="M347 92.4072C347 92.4072 346.724 71.6022 329.925 73.3972C313.125 75.1902 314.414 68.3022 307.238 69.0582C300.063 69.8152 291.728 76.8442 294.121 85.5262C296.516 94.2082 287.789 96.1492 282.057 102.736C276.324 109.323 283.406 114.712 293.063 121.152C302.72 127.592 292.463 125.925 298.188 136.107C303.914 146.288 323.295 133.282 323.295 133.282L347 92.4072Z" fill="#503164"/>
<path d="M210.664 437.601L222.394 438V344.255C222.394 344.255 222.984 320.014 245.846 317.582C268.707 315.151 476.042 285.116 476.042 285.116C476.042 285.116 484.26 284.246 488.993 300.017C493.726 315.788 498.333 377.804 498.333 377.804L561.973 386.381C561.973 386.381 563.653 276.831 540.671 270.786C517.69 264.741 217.149 295.546 217.149 295.546C217.149 295.546 194.859 411.898 210.664 437.601V437.601Z" fill="#2BD0D0"/>
<path opacity="0.197" d="M210.664 437.601L222.394 438V344.255C222.394 344.255 222.984 320.014 245.846 317.582C268.707 315.151 476.042 285.116 476.042 285.116C476.042 285.116 484.26 284.246 488.993 300.017C493.726 315.788 498.333 377.804 498.333 377.804L561.973 386.381C561.973 386.381 563.653 276.831 540.671 270.786C517.69 264.741 217.149 295.546 217.149 295.546C217.149 295.546 194.859 411.898 210.664 437.601V437.601Z" fill="url(#paint7_linear)"/>
<path d="M150 306.784C150 306.784 155.744 275.028 196.144 266.705L481.327 234.062C481.327 234.062 509.323 232.902 522.131 240.649C534.939 248.395 553.219 254.817 560.714 289.872C568.209 324.928 570 384.814 570 384.814L562.91 385.914C562.91 385.914 552.562 277.474 541.598 270.608C530.635 263.743 234.196 305.863 234.196 305.863C234.196 305.863 213.635 309.951 211.844 340.395C210.054 370.838 211.844 437 211.844 437L150 412.057V306.784Z" fill="#2BD0D0"/>
<path opacity="0.19" d="M443.425 246.844C428.663 244.944 413.781 243.568 398.906 244.124C387.726 244.557 376.62 246.09 365.534 247.617L267.759 261.12C266.099 261.35 264.209 261.723 263.379 263.164C261.787 265.916 265.529 268.628 268.561 269.676C301.071 280.932 335.804 292.332 369.269 284.306C384.569 280.637 398.78 273.018 414.299 270.371C429.817 267.724 445.747 270.161 461.232 267.665C475.789 265.32 489.649 258.656 504.404 258.591C508.929 258.591 513.587 259.168 517.879 257.752C522.172 256.337 525.967 252.013 524.779 247.702C510.926 247.224 495.375 244.695 481.787 247.44C468.338 250.152 456.893 246.844 443.425 246.844V246.844Z" fill="url(#paint8_linear)"/>
<path d="M355 262.38L355.57 264.494C355.57 264.494 372.451 274.667 372.345 274.995C372.239 275.323 442.369 258.755 442.369 258.755L444 254L355 262.38Z" fill="#2BD0D0"/>
<path d="M355 262.38L355.57 264.494C355.57 264.494 372.451 274.667 372.345 274.995C372.239 275.323 442.369 258.755 442.369 258.755L444 254L355 262.38Z" fill="url(#paint9_linear)"/>
<path d="M356 262.364L418.107 249L444 254.054L373.442 271L356 262.364Z" fill="#2BD0D0"/>
<path d="M356 262.364L418.107 249L444 254.054L373.442 271L356 262.364Z" fill="url(#paint10_linear)"/>
<path d="M335.832 273.484L350.289 273.996C350.289 273.996 353.961 274.224 354.909 271.279C355.859 268.334 349.019 262.119 348.287 262.002C347.554 261.884 328.527 267.222 331.27 272.558L335.832 273.484Z" fill="#2BD0D0"/>
<path d="M335.832 273.484L350.289 273.996C350.289 273.996 353.961 274.224 354.909 271.279C355.859 268.334 349.019 262.119 348.287 262.002C347.554 261.884 328.527 267.222 331.27 272.558L335.832 273.484Z" fill="url(#paint11_linear)"/>
<path d="M167 419.056L159.942 440.733C139.469 448.084 122.062 440.733 122.062 440.733L117 418C117 418 142.535 426.56 167 419.056Z" fill="#2BD0D0"/>
<path d="M167 419.056L159.942 440.733C139.469 448.084 122.062 440.733 122.062 440.733L117 418C117 418 142.535 426.56 167 419.056Z" fill="url(#paint12_linear)"/>
<path d="M175 399L172.716 415.943L166.93 418.951C142.282 426.371 116.515 417.913 116.515 417.913L112.072 414.63L110 399H175Z" fill="#2BD0D0"/>
<path d="M175 399L172.716 415.943L166.93 418.951C142.282 426.371 116.515 417.913 116.515 417.913L112.072 414.63L110 399H175Z" fill="url(#paint13_linear)"/>
<path d="M142.5 404C160.45 404 175 401.314 175 398C175 394.686 160.45 392 142.5 392C124.551 392 110 394.686 110 398C110 401.314 124.551 404 142.5 404Z" fill="#2BD0D0"/>
<path d="M142.5 404C160.45 404 175 401.314 175 398C175 394.686 160.45 392 142.5 392C124.551 392 110 394.686 110 398C110 401.314 124.551 404 142.5 404Z" fill="url(#paint14_linear)"/>
<path d="M127.641 268.03C124.459 266.515 121.038 265.372 118.285 263.16C112.738 258.66 111.332 250.912 109.595 243.962C107.859 237.011 104.498 229.369 97.6513 227.375C95.0893 226.638 92.0843 226.93 90.1363 228.765C88.0833 230.698 87.6663 233.875 88.2283 236.679C88.7893 239.483 90.1563 241.995 91.2133 244.653C93.6807 250.831 94.4312 257.561 93.3853 264.13C92.5203 269.519 90.4533 274.981 91.7803 280.264C94.0323 289.228 105.25 294.484 105.56 303.721C105.772 309.954 100.675 315.722 101.83 321.856C102.682 326.394 106.835 329.936 107.06 334.548C107.31 339.778 102.398 344.203 102.636 349.433C102.873 354.663 108.063 358.158 111.451 362.272C114.294 365.733 115.981 369.997 116.278 374.465C116.456 377.256 116.099 380.147 117.004 382.792C117.664 384.725 118.984 386.367 120.008 388.108C121.138 389.988 121.989 392.022 123.349 393.763C125.051 395.929 127.367 397.532 129.994 398.362C132.621 399.192 135.437 399.21 138.074 398.414C139.124 391.464 138.206 384.374 138.497 377.349C139.071 363.74 144.188 350.025 140.913 336.814C139.712 331.97 137.401 327.371 136.991 322.401C136.628 317.961 137.803 313.563 138.622 309.184C140.312 300.14 140.286 290.79 139.592 281.646C139.045 274.39 133.974 271.047 127.642 268.03H127.641Z" fill="#2BD0D0"/>
<path d="M147.752 303.767C147.699 309.829 149.082 316.097 147.14 321.852C145.67 326.214 142.438 329.786 140.769 334.075C136.919 343.974 142.099 355.075 141.042 365.645C140.602 369.999 139.106 374.182 138.162 378.458C136.99 383.871 136.702 389.438 137.311 394.943C137.249 395.946 137.552 396.938 138.163 397.735C138.774 398.533 139.652 399.084 140.636 399.285C143.895 400.526 147.27 401.436 150.711 402C149.548 395.591 150.774 388.977 154.156 383.41C159.43 374.78 169.678 368.964 171.586 359.051C172.876 352.339 169.871 345.527 170.084 338.696C170.238 334.149 171.805 329.763 174.566 326.148C177.046 322.921 180.405 320.425 182.713 317.078C188.259 309.012 186.53 298.23 184.881 288.584C183.231 278.937 182.274 267.836 188.791 260.527C190.853 258.217 193.539 256.483 195.408 254.014C199.571 248.51 198.52 240.031 193.678 235.112C188.838 230.192 181.043 228.832 174.46 230.996C171.684 231.812 169.233 233.477 167.45 235.756C164.125 240.47 165.455 246.91 166.865 252.513C168.095 257.38 169.086 262.996 167.404 267.903C166.147 271.554 162.961 273.533 160.254 276.075C156.419 279.616 153.336 283.893 151.188 288.65C149.04 293.408 147.872 298.549 147.752 303.767V303.767Z" fill="#2BD0D0"/>
<path d="M141.062 357.522C140.124 364.115 138.77 370.761 138.492 377.373V378.038C138.478 378.202 138.441 378.364 138.381 378.517C137.21 383.935 136.917 389.507 137.515 395.018C137.551 395.911 137.776 396.786 138.175 397.584C138.143 397.863 138.103 398.135 138.064 398.414C135.426 399.21 132.609 399.192 129.981 398.362C127.354 397.532 125.037 395.929 123.334 393.762C122.014 392.021 121.121 389.987 119.992 388.107C118.935 386.359 117.647 384.717 116.987 382.79C116.082 380.131 116.438 377.254 116.26 374.463C115.964 369.994 114.276 365.729 111.432 362.267C108.043 358.18 102.845 354.751 102.614 349.434C102.383 344.117 107.29 339.778 107.039 334.547C106.815 329.935 102.66 326.393 101.809 321.854C100.652 315.719 105.771 309.951 105.54 303.717C105.23 294.479 94.0084 289.222 91.7554 280.257C90.4354 274.973 92.4954 269.51 93.3604 264.121C94.4115 257.56 93.67 250.836 91.2144 244.661C90.1574 242.003 88.7904 239.498 88.2284 236.686C87.6674 233.876 88.0834 230.705 90.1374 228.764C92.1194 226.93 95.0914 226.638 97.6544 227.375C104.51 229.369 107.858 237.039 109.602 243.99C111.346 250.942 112.746 258.684 118.294 263.19C121.036 265.417 124.47 266.546 127.654 268.062C133.994 271.079 139.067 274.422 139.609 281.612C140.269 290.757 140.329 300.108 138.639 309.153C137.819 313.533 136.657 317.933 137.007 322.372C137.357 326.812 139.279 331.012 140.534 335.318C140.673 335.803 140.811 336.295 140.93 336.787C142.595 343.626 142.06 350.544 141.062 357.522V357.522Z" fill="#30C59B"/>
<path d="M137.718 397C137.416 396.204 137.247 395.363 137.216 394.512C136.786 389.152 137 383.732 137.853 378.465C137.876 378.31 137.905 378.155 137.933 378C137.762 384.346 138.307 390.744 137.718 397V397Z" fill="url(#paint15_linear)"/>
<path d="M195.393 254.014C193.522 256.484 190.831 258.216 188.766 260.527C182.239 267.83 183.198 278.937 184.85 288.584C186.501 298.23 188.233 309.012 182.678 317.079C180.368 320.399 177.004 322.921 174.519 326.148C171.753 329.762 170.184 334.148 170.029 338.696C169.817 345.527 172.827 352.339 171.535 359.051C169.624 368.964 159.36 374.793 154.078 383.411C150.704 388.981 149.486 395.594 150.654 402C147.217 401.436 143.845 400.526 140.59 399.285C139.701 399.022 138.894 398.535 138.246 397.87C138.154 397.762 138.072 397.647 137.999 397.525C137.587 396.735 137.348 395.865 137.3 394.975C136.701 389.469 137 383.902 138.186 378.491C138.219 378.331 138.259 378.172 138.299 378.013C139.245 373.903 140.644 369.873 141.07 365.677C141.297 362.957 141.243 360.221 140.91 357.511C141.916 350.54 142.455 343.629 140.757 336.843C140.637 336.353 140.497 335.861 140.357 335.376C140.484 334.951 140.63 334.526 140.797 334.108C142.469 329.819 145.706 326.248 147.177 321.885C149.116 316.129 147.737 309.862 147.79 303.8C147.877 293.33 152.613 283.22 160.219 276.075C162.929 273.533 166.12 271.555 167.379 267.903C169.064 262.996 168.045 257.38 166.839 252.513C165.421 246.91 164.075 240.47 167.426 235.756C169.091 233.419 171.716 231.899 174.446 230.996C181.013 228.831 188.853 230.192 193.695 235.112C198.537 240.032 199.563 248.542 195.393 254.014V254.014Z" fill="#30C59B"/>
<path d="M313.573 149.146C313.573 149.146 285.756 153.446 272.889 184.123C260.022 214.8 266.713 252.806 266.938 256.15C267.163 259.494 306.366 274 317.573 274C328.781 274 331.115 262.771 331.115 262.771L311.312 254.338L371.482 247.389H382.286L376.335 257.421C376.335 257.421 388.078 258.651 395.927 258.932C403.775 259.213 409.105 243.692 409.984 235.973C410.864 228.256 375.317 160.515 370.007 156.503C364.697 152.49 350.29 142.686 313.573 149.146V149.146Z" fill="#2BD0D0"/>
<path d="M346.392 91.7762C346.392 91.7762 351.424 94.6062 350.972 103.761C350.519 112.916 347.682 126.693 344.819 130.261C341.955 133.831 331.939 135.229 331.939 135.229C331.939 135.229 337.403 148.206 341.469 151.555C345.535 154.904 337.383 167.242 329.454 163.194C321.526 159.145 312.334 148.978 312.334 148.978C312.334 148.978 318.946 136.733 316.71 130.288C314.475 123.843 305.938 101.224 312.334 95.0462C318.73 88.8662 332.52 80.0112 346.392 91.7762V91.7762Z" fill="url(#paint16_linear)"/>
<path opacity="0.25" d="M302.334 193L298 247.055L311.238 254L322 252.122L308.572 235.618L302.334 193ZM372 190C372 190 389.909 232.077 381.97 247L375.854 245.84L372 190Z" fill="white"/>
<path d="M323.522 261.045C323.522 261.045 316.756 266.82 319.776 271.312C322.796 275.803 326.401 275.675 329.407 273.667C332.413 271.658 338.318 266.891 345.353 269.079C352.388 271.267 354.097 272.659 354.097 272.659C354.097 272.659 357.802 270.343 356.841 268.02C355.879 265.697 348.521 258.17 346.389 257.195C344.257 256.22 335.406 259.216 335.406 259.216C335.406 259.216 328.903 257.458 323.522 261.046V261.045Z" fill="url(#paint17_linear)"/>
<path d="M383.191 248.598C383.191 248.598 376.806 249.357 375.193 253.555C373.58 257.753 373 258.265 373 258.265C373 258.265 376.606 258.955 378.106 257.001C379.606 255.047 381.165 255.868 381.165 255.868L380.718 258.375C380.718 258.375 390.516 259.852 394.942 258.265C399.367 256.676 401.267 254.812 401.267 254.812L403 250.572C403 250.572 398.82 247.542 395.668 247.072C392.516 246.602 383.191 248.598 383.191 248.598V248.598Z" fill="url(#paint18_linear)"/>
<path d="M416.893 293C416.893 293 438.827 309.687 436.877 332.259C434.928 354.831 432.064 388.346 432.064 388.346C432.064 388.346 423.218 392.068 417.357 388.346C411.495 384.624 407.946 333.696 405.042 328.833C402.138 323.969 384.667 302.043 366 300.154L416.893 293Z" fill="#25233A"/>
<path d="M307 309.058C307 309.058 317.444 318.953 336.062 322.06C354.681 325.167 363.359 327.76 369.049 343.665C374.739 359.57 380.197 393.802 381.984 397.628C383.77 401.454 391.366 399.502 391.366 399.502C391.366 399.502 395.662 394.607 395.662 367.388C395.662 329.442 398.317 321.664 388.749 312.132C379.181 302.599 370.477 300 370.477 300L307 309.058Z" fill="#3F3D56"/>
<path d="M382 399L383.82 413.197H387.228C387.228 413.197 409.176 414.384 409.864 413.872C410.552 413.359 408.807 402.629 400.492 402.932C392.176 403.236 391.631 400.909 391.631 400.909L382 399ZM419 389.156L422.518 403L460.955 397.788C460.955 397.788 462.308 388.695 450.132 389.597C446.918 389.831 444.524 392.062 440.661 392.082C436.798 392.102 433.098 390.539 431.15 388L419 389.156Z" fill="#25233A"/>
<path d="M549.804 215.337L407.561 222.991C404.121 223.172 401.185 220.521 401 217.065V115.473C401.003 111.372 404.267 108.025 408.348 107.938L550.009 105.001C550.91 104.983 551.805 105.143 552.644 105.472C553.482 105.801 554.247 106.293 554.895 106.918C556.208 108.186 556.965 109.921 557 111.745V207.716C556.995 211.772 553.836 215.118 549.804 215.337V215.337Z" fill="#2BD0D0"/>
<path d="M557.804 215.337L415.554 222.992C412.114 223.169 409.182 220.514 409 217.058V115.473C408.996 111.371 412.26 108.021 416.342 107.938L558.022 105.001C561.799 104.931 564.92 107.944 565 111.739V207.716C564.995 211.773 561.836 215.119 557.804 215.337V215.337Z" fill="#2BD0D0"/>
<path d="M557.804 215.337L415.554 222.992C412.114 223.169 409.182 220.514 409 217.058V115.473C408.996 111.371 412.26 108.021 416.342 107.938L558.022 105.001C561.799 104.931 564.92 107.944 565 111.739V207.716C564.995 211.773 561.836 215.119 557.804 215.337V215.337Z" fill="url(#paint19_linear)"/>
<path d="M515.773 254.138L479.478 258C479.478 258 468.425 255.77 469.023 254.138C469.622 252.505 481.179 250.933 481.179 250.933V185.129C481.079 184.983 479.558 183.045 475.39 181.81C474.583 181.571 473.762 181.38 472.931 181.24C472.217 181.136 471.523 180.926 470.871 180.616C468.392 179.336 471.131 177.106 474.978 177.006C475.581 176.985 476.184 177.021 476.78 177.112H504.693C504.693 177.112 515.261 180.085 515.773 194.923C516.284 209.762 515.773 254.138 515.773 254.138V254.138Z" fill="#3A3054"/>
<path d="M486 254.277L479.322 258C479.322 258 468.434 255.77 469.023 254.137C469.613 252.505 481.018 250.932 481.018 250.932V185.123C480.88 184.971 479.211 183.225 475.315 181.805C473.866 181.288 472.377 180.888 470.863 180.61C468.421 179.33 471.118 177.1 474.909 177C478.137 177.445 484.494 181.028 484.907 183.073C485.319 185.117 486 254.277 486 254.277V254.277Z" fill="#51466B"/>
<path d="M351 392C350.119 393.001 349.71 393.37 350.23 392.547C350.5 392.388 350.757 392.205 351 392Z" fill="url(#paint20_linear)"/>
<defs>
<linearGradient id="paint0_linear" x1="291" y1="387.5" x2="302" y2="387.5" gradientUnits="userSpaceOnUse">
<stop stop-color="#183866"/>
<stop offset="1" stop-color="#1A7FC1"/>
</linearGradient>
<linearGradient id="paint1_linear" x1="317.993" y1="389.501" x2="324" y2="389.501" gradientUnits="userSpaceOnUse">
<stop/>
<stop offset="0.99" stop-opacity="0"/>
</linearGradient>
<linearGradient id="paint2_linear" x1="365.736" y1="306.741" x2="391.309" y2="318.701" gradientUnits="userSpaceOnUse">
<stop/>
<stop offset="0.99" stop-opacity="0"/>
</linearGradient>
<linearGradient id="paint3_linear" x1="316.536" y1="148.881" x2="313.025" y2="147.925" gradientUnits="userSpaceOnUse">
<stop/>
<stop offset="0.99" stop-opacity="0"/>
</linearGradient>
<linearGradient id="paint4_linear" x1="386.904" y1="369.244" x2="300.678" y2="341.077" gradientUnits="userSpaceOnUse">
<stop/>
<stop offset="0.99" stop-opacity="0"/>
</linearGradient>
<linearGradient id="paint5_linear" x1="397.221" y1="59.302" x2="393.253" y2="58.0492" gradientUnits="userSpaceOnUse">
<stop/>
<stop offset="0.99" stop-opacity="0"/>
</linearGradient>
<linearGradient id="paint6_linear" x1="354.176" y1="314.613" x2="326.431" y2="321.99" gradientUnits="userSpaceOnUse">
<stop/>
<stop offset="0.99" stop-opacity="0"/>
</linearGradient>
<linearGradient id="paint7_linear" x1="586.455" y1="307.804" x2="78.0364" y2="283.329" gradientUnits="userSpaceOnUse">
<stop/>
<stop offset="1" stop-opacity="0"/>
</linearGradient>
<linearGradient id="paint8_linear" x1="300.123" y1="226.225" x2="562.12" y2="226.225" gradientUnits="userSpaceOnUse">
<stop stop-color="#183866"/>
<stop offset="1" stop-color="#1A7FC1"/>
</linearGradient>
<linearGradient id="paint9_linear" x1="390.944" y1="262.298" x2="394.103" y2="274.573" gradientUnits="userSpaceOnUse">
<stop/>
<stop offset="0.99" stop-opacity="0"/>
</linearGradient>
<linearGradient id="paint10_linear" x1="344.973" y1="258.883" x2="430.308" y2="286.188" gradientUnits="userSpaceOnUse">
<stop/>
<stop offset="0.99" stop-opacity="0"/>
</linearGradient>
<linearGradient id="paint11_linear" x1="343.888" y1="267.073" x2="343.26" y2="271.902" gradientUnits="userSpaceOnUse">
<stop/>
<stop offset="0.99" stop-opacity="0"/>
</linearGradient>
<linearGradient id="paint12_linear" x1="212.463" y1="331.356" x2="168.126" y2="329.644" gradientUnits="userSpaceOnUse">
<stop/>
<stop offset="0.99" stop-opacity="0"/>
</linearGradient>
<linearGradient id="paint13_linear" x1="219.576" y1="369.963" x2="182.533" y2="368.696" gradientUnits="userSpaceOnUse">
<stop/>
<stop offset="0.99" stop-opacity="0"/>
</linearGradient>
<linearGradient id="paint14_linear" x1="147.043" y1="397.234" x2="145.692" y2="403.917" gradientUnits="userSpaceOnUse">
<stop/>
<stop offset="0.99" stop-opacity="0"/>
</linearGradient>
<linearGradient id="paint15_linear" x1="137.581" y1="98.0217" x2="134.473" y2="117.158" gradientUnits="userSpaceOnUse">
<stop/>
<stop offset="0.99" stop-opacity="0"/>
</linearGradient>
<linearGradient id="paint16_linear" x1="309.984" y1="124.995" x2="350.999" y2="124.995" gradientUnits="userSpaceOnUse">
<stop stop-color="#ECC4D7"/>
<stop offset="0.42" stop-color="#EFD4D1"/>
<stop offset="1" stop-color="#F2EAC9"/>
</linearGradient>
<linearGradient id="paint17_linear" x1="356.633" y1="227.608" x2="394.632" y2="227.608" gradientUnits="userSpaceOnUse">
<stop stop-color="#ECC4D7"/>
<stop offset="0.42" stop-color="#EFD4D1"/>
<stop offset="1" stop-color="#F2EAC9"/>
</linearGradient>
<linearGradient id="paint18_linear" x1="410.292" y1="236.853" x2="440.292" y2="236.853" gradientUnits="userSpaceOnUse">
<stop stop-color="#ECC4D7"/>
<stop offset="0.42" stop-color="#EFD4D1"/>
<stop offset="1" stop-color="#F2EAC9"/>
</linearGradient>
<linearGradient id="paint19_linear" x1="610.069" y1="223.425" x2="467.99" y2="317.915" gradientUnits="userSpaceOnUse">
<stop stop-color="#362958" stop-opacity="0.501"/>
<stop offset="1" stop-color="#34313D" stop-opacity="0"/>
</linearGradient>
<linearGradient id="paint20_linear" x1="389.891" y1="49.8937" x2="388.725" y2="49.4626" gradientUnits="userSpaceOnUse">
<stop/>
<stop offset="0.99" stop-opacity="0"/>
</linearGradient>
</defs>
</svg>
